<?xml version="1.0" encoding="UTF-8" standalone="no"?>
<svg width="22px" height="22px" viewBox="0 0 22 22" version="1.1" xmlns="http://www.w3.org/2000/svg" xmlns:xlink="http://www.w3.org/1999/xlink">
    <!-- Generator: Sketch 42 (36781) - http://www.bohemiancoding.com/sketch -->
    <title>Star_Selected</title>
    <desc>Created with Sketch.</desc>
    <defs></defs>
    <g id="Design" stroke="none" stroke-width="1" fill="none" fill-rule="evenodd">
        <g id="Design_Icon" transform="translate(-162.000000, -554.000000)" fill="#F5C415">
            <g id="Icon" transform="translate(108.000000, 89.000000)">
                <g id="Rating" transform="translate(0.000000, 431.000000)">
                    <g id="Star_Selected" transform="translate(54.000000, 34.000000)">
                        <path d="M11.8933209,18.4696466 C11.3999534,18.2102679 10.6005679,18.2099939 10.1066791,18.4696466 L4.83989787,21.2385573 C4.34653036,21.497936 4.02286171,21.2634298 4.11718608,20.7134765 L5.12305179,14.8488294 C5.2172766,14.2994566 4.97051355,13.5391112 4.57094911,13.1496321 L0.310033594,8.99626595 C-0.0891091057,8.60719798 0.0339004586,8.22690439 0.586084934,8.14666729 L6.47452536,7.29102681 C7.026127,7.2108744 7.67300453,6.74122913 7.91994894,6.24086511 L10.5533395,0.905032924 C10.8000233,0.405197042 11.199716,0.404668908 11.4466605,0.905032924 L14.0800511,6.24086511 C14.3267348,6.74070099 14.9732902,7.21078971 15.5254746,7.29102681 L21.4139151,8.14666729 C21.9655167,8.2268197 22.0895308,8.60678688 21.6899664,8.99626595 L17.4290509,13.1496321 C17.0299082,13.5387001 16.7826238,14.2988761 16.8769482,14.8488294 L17.8828139,20.7134765 C17.9770387,21.2628493 17.6539909,21.4982101 17.1601021,21.2385573 L11.8933209,18.4696466 Z" id="Star"></path>
                    </g>
                </g>
            </g>
        </g>
    </g>
</svg>