<?xml version="1.0" encoding="UTF-8" standalone="no"?>
<svg width="24px" height="22px" viewBox="0 0 24 22" version="1.1" xmlns="http://www.w3.org/2000/svg" xmlns:xlink="http://www.w3.org/1999/xlink">
    <!-- Generator: Sketch 42 (36781) - http://www.bohemiancoding.com/sketch -->
    <title>Thumb_Selected</title>
    <desc>Created with Sketch.</desc>
    <defs></defs>
    <g id="Design" stroke="none" stroke-width="1" fill="none" fill-rule="evenodd">
        <g id="Design_Icon" transform="translate(-259.000000, -555.000000)" fill-rule="nonzero" fill="#1C99BC">
            <g id="Icon" transform="translate(108.000000, 89.000000)">
                <g id="Rating" transform="translate(0.000000, 431.000000)">
                    <g id="Thumb_Selected" transform="translate(151.000000, 35.000000)">
                        <path d="M4.83149783,7.9290449 L0.752780767,7.9290449 C0.337134945,7.9290449 0,8.26617985 0,8.68182567 L0,20.76134 C0,21.1769858 0.337134945,21.5141207 0.752780767,21.5141207 L4.83149783,21.5141207 C5.24752851,21.5141207 5.58466345,21.1769858 5.58466345,20.76134 L5.58466345,8.68182567 C5.58466345,8.26617985 5.24752851,7.9290449 4.83149783,7.9290449 Z M4.62713863,20.510413 L0.956370249,20.510413 L0.956370249,18.6904231 L4.62713863,18.6904231 L4.62713863,20.510413 Z M22.8220345,16.5764023 C23.1699455,15.2093894 21.8040871,14.6686649 21.8040871,14.6686649 C22.7277445,14.5674475 23.3192701,14.3272966 23.5428721,13.4944655 C23.8057296,12.5142341 23.1749486,11.7776173 22.1762441,11.3515804 C22.3278778,11.3365709 23.8526822,11.0902623 23.9900762,9.54313618 C24.1394008,7.85322802 22.5637953,7.35984104 21.9384023,7.35984104 C19.5145714,7.35945618 17.0903556,7.3602259 14.6665247,7.3575319 C15.0152053,6.59820856 15.4408574,4.58540518 14.9051362,1.81135417 C14.6934647,0.714895883 14.0465197,-0.0144085925 13.2221554,0.000215982736 C12.5578918,0.0113768428 11.9236471,0.523621833 11.8570668,1.16248486 C11.7847136,1.86446447 11.6119127,2.86432358 11.4487333,3.54783005 C10.9268668,5.73381919 8.13434269,8.61909394 6.36861766,9.62588049 L6.36861766,20.3025901 C7.5662934,20.9799389 8.86518659,21.2166261 10.2522121,21.1904558 C12.4439741,21.1485063 18.7048317,21.1846829 19.839006,21.1777555 C20.6422031,21.1723675 21.4427061,20.7894345 21.8279482,19.820364 C22.3536632,18.4972248 20.9978112,17.8356552 20.9978112,17.8356552 C20.9978112,17.8356552 22.4825904,17.9083932 22.8220345,16.5764023 Z" id="Shape"></path>
                    </g>
                </g>
            </g>
        </g>
    </g>
</svg>